<?xml version="1.0" encoding="UTF-8" standalone="no"?>
<svg width="236px" height="70px" xmlns="http://www.w3.org/2000/svg" version="1.1">
    <title>flat-money-icon</title>
    <description>Created with Sketch (http://www.bohemiancoding.com/sketch)</description>
    <defs>
        <linearGradient id="gradient-1" x1="50%" y1="0%" x2="50%" y2="100%">
            <stop offset="0%" style="stop-color:rgb(255,255,255); stop-opacity:100"></stop>
            <stop offset="100%" style="stop-color:rgb(0,0,0); stop-opacity:100"></stop>
        </linearGradient>
        <linearGradient id="gradient-2" x1="50%" y1="0%" x2="50%" y2="100%">
            <stop offset="0%" style="stop-color:rgb(255,255,255); stop-opacity:100"></stop>
            <stop offset="100%" style="stop-color:rgb(0,0,0); stop-opacity:100"></stop>
        </linearGradient>
        <linearGradient id="gradient-3" x1="50%" y1="0%" x2="50%" y2="100%">
            <stop offset="0%" style="stop-color:rgb(255,255,255); stop-opacity:100"></stop>
            <stop offset="100%" style="stop-color:rgb(0,0,0); stop-opacity:100"></stop>
        </linearGradient>
        <linearGradient id="gradient-4" x1="50%" y1="0%" x2="50%" y2="100%">
            <stop offset="0%" style="stop-color:rgb(255,255,255); stop-opacity:100"></stop>
            <stop offset="100%" style="stop-color:rgb(0,0,0); stop-opacity:100"></stop>
        </linearGradient>
        <linearGradient id="gradient-5" x1="50%" y1="0%" x2="50%" y2="100%">
            <stop offset="0%" style="stop-color:rgb(255,255,255); stop-opacity:100"></stop>
            <stop offset="100%" style="stop-color:rgb(0,0,0); stop-opacity:100"></stop>
        </linearGradient>
        <linearGradient id="gradient-6" x1="50%" y1="0%" x2="50%" y2="100%">
            <stop offset="0%" style="stop-color:rgb(255,255,255); stop-opacity:100"></stop>
            <stop offset="100%" style="stop-color:rgb(0,0,0); stop-opacity:100"></stop>
        </linearGradient>
        <linearGradient id="gradient-7" x1="50%" y1="0%" x2="50%" y2="100%">
            <stop offset="0%" style="stop-color:rgb(255,255,255); stop-opacity:100"></stop>
            <stop offset="100%" style="stop-color:rgb(0,0,0); stop-opacity:100"></stop>
        </linearGradient>
        <linearGradient id="gradient-8" x1="50%" y1="0%" x2="50%" y2="100%">
            <stop offset="0%" style="stop-color:rgb(255,255,255); stop-opacity:100"></stop>
            <stop offset="100%" style="stop-color:rgb(0,0,0); stop-opacity:100"></stop>
        </linearGradient>
        <linearGradient id="gradient-9" x1="50%" y1="0%" x2="50%" y2="100%">
            <stop offset="0%" style="stop-color:rgb(255,255,255); stop-opacity:100"></stop>
            <stop offset="100%" style="stop-color:rgb(0,0,0); stop-opacity:100"></stop>
        </linearGradient>
    </defs>
    <g fill="rgb(215,215,215)" id="Page 1">
        <g fill="rgb(215,215,215)" id="Group">
            <g fill="rgb(58,58,70)" id="Shape"></g>
            <path id="Shape" d="M196,11 L196,59 L88,59 L88,11 L196,11 M205,2 L79,2 L79,68 L205,68 L205,2 L205,2 L205,2 M142,15 C131,15 123,24 123,35 C123,46 131,54 142,54 C153,54 161,46 161,35 C161,24 153,15 142,15 L142,15 L142,15 M144,45 L144,47 L140,47 L140,45 C139,45 136,44 135,43 L136,39 C138,40 141,41 143,41 C144,40 145,39 143,38 C141,37 135,36 135,31 C135,29 137,26 140,25 L140,23 L144,23 L144,25 C146,25 147,25 149,26 C149,27 148,30 148,30 C147,30 145,29 143,29 C140,29 140,31 142,32 C145,33 150,34 150,39 C150,42 147,44 144,45 C144,45 147,44 144,45 L144,45" fill="rgb(58,58,70)"></path>
            <path id="Shape decoration" d="" fill="rgb(58,58,70)"></path>
            <g fill="rgb(58,58,70)" id="Shape"></g>
            <path id="Shape" d="M41,12 L41,30 L70,30 L70,41 L41,41 L41,68 L29,68 L29,2 L74,2 L73,12 L41,12 L41,12 L41,12" fill="rgb(58,58,70)"></path>
            <path id="Shape decoration" d="" fill="rgb(58,58,70)"></path>
        </g>
    </g>
</svg>