<?xml version="1.0" encoding="UTF-8" standalone="no"?>
<svg width="236px" height="106px" xmlns="http://www.w3.org/2000/svg" version="1.1">
    <title>flat-icon-title</title>
    <description>Created with Sketch (http://www.bohemiancoding.com/sketch)</description>
    <defs>
        <linearGradient id="gradient-1" x1="50%" y1="0%" x2="50%" y2="100%">
            <stop offset="0%" style="stop-color:rgb(255,255,255); stop-opacity:100"></stop>
            <stop offset="100%" style="stop-color:rgb(0,0,0); stop-opacity:100"></stop>
        </linearGradient>
        <linearGradient id="gradient-2" x1="50%" y1="0%" x2="50%" y2="100%">
            <stop offset="0%" style="stop-color:rgb(255,255,255); stop-opacity:100"></stop>
            <stop offset="100%" style="stop-color:rgb(0,0,0); stop-opacity:100"></stop>
        </linearGradient>
        <linearGradient id="gradient-3" x1="50%" y1="0%" x2="50%" y2="100%">
            <stop offset="0%" style="stop-color:rgb(255,255,255); stop-opacity:100"></stop>
            <stop offset="100%" style="stop-color:rgb(0,0,0); stop-opacity:100"></stop>
        </linearGradient>
        <linearGradient id="gradient-4" x1="50%" y1="0%" x2="50%" y2="100%">
            <stop offset="0%" style="stop-color:rgb(255,255,255); stop-opacity:100"></stop>
            <stop offset="100%" style="stop-color:rgb(0,0,0); stop-opacity:100"></stop>
        </linearGradient>
        <linearGradient id="gradient-5" x1="50%" y1="0%" x2="50%" y2="100%">
            <stop offset="0%" style="stop-color:rgb(255,255,255); stop-opacity:100"></stop>
            <stop offset="100%" style="stop-color:rgb(0,0,0); stop-opacity:100"></stop>
        </linearGradient>
        <linearGradient id="gradient-6" x1="50%" y1="0%" x2="50%" y2="100%">
            <stop offset="0%" style="stop-color:rgb(255,255,255); stop-opacity:100"></stop>
            <stop offset="100%" style="stop-color:rgb(0,0,0); stop-opacity:100"></stop>
        </linearGradient>
        <linearGradient id="gradient-7" x1="50%" y1="0%" x2="50%" y2="100%">
            <stop offset="0%" style="stop-color:rgb(255,255,255); stop-opacity:100"></stop>
            <stop offset="100%" style="stop-color:rgb(0,0,0); stop-opacity:100"></stop>
        </linearGradient>
        <linearGradient id="gradient-8" x1="50%" y1="0%" x2="50%" y2="100%">
            <stop offset="0%" style="stop-color:rgb(255,255,255); stop-opacity:100"></stop>
            <stop offset="100%" style="stop-color:rgb(0,0,0); stop-opacity:100"></stop>
        </linearGradient>
        <linearGradient id="gradient-9" x1="50%" y1="0%" x2="50%" y2="100%">
            <stop offset="0%" style="stop-color:rgb(255,255,255); stop-opacity:100"></stop>
            <stop offset="100%" style="stop-color:rgb(0,0,0); stop-opacity:100"></stop>
        </linearGradient>
        <linearGradient id="gradient-10" x1="50%" y1="0%" x2="50%" y2="100%">
            <stop offset="0%" style="stop-color:rgb(255,255,255); stop-opacity:100"></stop>
            <stop offset="100%" style="stop-color:rgb(0,0,0); stop-opacity:100"></stop>
        </linearGradient>
        <linearGradient id="gradient-11" x1="50%" y1="0%" x2="50%" y2="100%">
            <stop offset="0%" style="stop-color:rgb(255,255,255); stop-opacity:100"></stop>
            <stop offset="100%" style="stop-color:rgb(0,0,0); stop-opacity:100"></stop>
        </linearGradient>
        <linearGradient id="gradient-12" x1="50%" y1="0%" x2="50%" y2="100%">
            <stop offset="0%" style="stop-color:rgb(255,255,255); stop-opacity:100"></stop>
            <stop offset="100%" style="stop-color:rgb(0,0,0); stop-opacity:100"></stop>
        </linearGradient>
        <linearGradient id="gradient-13" x1="50%" y1="0%" x2="50%" y2="100%">
            <stop offset="0%" style="stop-color:rgb(255,255,255); stop-opacity:100"></stop>
            <stop offset="100%" style="stop-color:rgb(0,0,0); stop-opacity:100"></stop>
        </linearGradient>
        <linearGradient id="gradient-14" x1="50%" y1="0%" x2="50%" y2="100%">
            <stop offset="0%" style="stop-color:rgb(255,255,255); stop-opacity:100"></stop>
            <stop offset="100%" style="stop-color:rgb(0,0,0); stop-opacity:100"></stop>
        </linearGradient>
        <linearGradient id="gradient-15" x1="50%" y1="0%" x2="50%" y2="100%">
            <stop offset="0%" style="stop-color:rgb(255,255,255); stop-opacity:100"></stop>
            <stop offset="100%" style="stop-color:rgb(0,0,0); stop-opacity:100"></stop>
        </linearGradient>
        <linearGradient id="gradient-16" x1="50%" y1="0%" x2="50%" y2="100%">
            <stop offset="0%" style="stop-color:rgb(255,255,255); stop-opacity:100"></stop>
            <stop offset="100%" style="stop-color:rgb(0,0,0); stop-opacity:100"></stop>
        </linearGradient>
        <linearGradient id="gradient-17" x1="50%" y1="0%" x2="50%" y2="100%">
            <stop offset="0%" style="stop-color:rgb(255,255,255); stop-opacity:100"></stop>
            <stop offset="100%" style="stop-color:rgb(0,0,0); stop-opacity:100"></stop>
        </linearGradient>
        <linearGradient id="gradient-18" x1="50%" y1="0%" x2="50%" y2="100%">
            <stop offset="0%" style="stop-color:rgb(255,255,255); stop-opacity:100"></stop>
            <stop offset="100%" style="stop-color:rgb(0,0,0); stop-opacity:100"></stop>
        </linearGradient>
        <linearGradient id="gradient-19" x1="50%" y1="0%" x2="50%" y2="100%">
            <stop offset="0%" style="stop-color:rgb(255,255,255); stop-opacity:100"></stop>
            <stop offset="100%" style="stop-color:rgb(0,0,0); stop-opacity:100"></stop>
        </linearGradient>
        <linearGradient id="gradient-20" x1="50%" y1="0%" x2="50%" y2="100%">
            <stop offset="0%" style="stop-color:rgb(255,255,255); stop-opacity:100"></stop>
            <stop offset="100%" style="stop-color:rgb(0,0,0); stop-opacity:100"></stop>
        </linearGradient>
        <linearGradient id="gradient-21" x1="50%" y1="0%" x2="50%" y2="100%">
            <stop offset="0%" style="stop-color:rgb(255,255,255); stop-opacity:100"></stop>
            <stop offset="100%" style="stop-color:rgb(0,0,0); stop-opacity:100"></stop>
        </linearGradient>
        <linearGradient id="gradient-22" x1="50%" y1="0%" x2="50%" y2="100%">
            <stop offset="0%" style="stop-color:rgb(255,255,255); stop-opacity:100"></stop>
            <stop offset="100%" style="stop-color:rgb(0,0,0); stop-opacity:100"></stop>
        </linearGradient>
        <linearGradient id="gradient-23" x1="50%" y1="0%" x2="50%" y2="100%">
            <stop offset="0%" style="stop-color:rgb(255,255,255); stop-opacity:100"></stop>
            <stop offset="100%" style="stop-color:rgb(0,0,0); stop-opacity:100"></stop>
        </linearGradient>
    </defs>
    <g fill="rgb(215,215,215)" id="Page 1">
        <g fill="rgb(215,215,215)" id="Group">
            <g fill="rgb(58,58,70)" id="Shape"></g>
            <path id="Shape" d="M36,11 L36,22 L54,22 L54,28 L36,28 L36,45 L29,45 L29,4 L56,4 L56,11 L36,11 L36,11 L36,11" fill="rgb(58,58,70)"></path>
            <path id="Shape decoration" d="" fill="rgb(58,58,70)"></path>
            <g fill="rgb(58,58,70)" id="Shape"></g>
            <path id="Shape" d="M65,45 L59,45 L59,2 L65,2 L65,45 L65,45 L65,45" fill="rgb(58,58,70)"></path>
            <path id="Shape decoration" d="" fill="rgb(58,58,70)"></path>
            <g fill="rgb(58,58,70)" id="Shape"></g>
            <path id="Shape" d="M97,45 L91,45 L91,41 C88,44 85,46 80,46 C77,46 75,45 72,43 C70,41 69,39 69,36 C69,32 70,30 73,29 C75,27 78,26 82,26 L90,26 L90,25 C90,21 88,19 83,19 C80,19 77,20 74,22 L71,18 C75,15 79,14 84,14 C88,14 91,15 93,16 C96,18 97,21 97,25 L97,45 L97,45 L97,45 M90,34 L90,31 L83,31 C78,31 76,32 76,35 C76,37 76,38 78,39 C79,40 80,40 82,40 C84,40 86,39 88,38 C89,37 90,36 90,34 C90,34 90,36 90,34 L90,34" fill="rgb(58,58,70)"></path>
            <path id="Shape decoration" d="" fill="rgb(58,58,70)"></path>
            <g fill="rgb(58,58,70)" id="Shape"></g>
            <path id="Shape" d="M110,19 L110,35 C110,37 111,38 111,39 C112,39 113,40 115,40 C116,40 117,39 119,38 L121,42 C119,45 117,46 114,46 C111,46 109,45 107,43 C105,41 104,38 104,35 L104,19 L100,19 L100,14 L104,14 L104,4 L110,4 L110,14 L118,14 L118,19 L110,19 L110,19 L110,19" fill="rgb(58,58,70)"></path>
            <path id="Shape decoration" d="" fill="rgb(58,58,70)"></path>
            <g fill="rgb(58,58,70)" id="Shape"></g>
            <path id="Shape" d="M36,92 L29,92 L29,51 L40,51 L52,77 L64,51 L75,51 L75,92 L68,92 L68,60 L54,88 L50,88 L36,60 L36,92 L36,92 L36,92" fill="rgb(58,58,70)"></path>
            <path id="Shape decoration" d="" fill="rgb(58,58,70)"></path>
            <g fill="rgb(58,58,70)" id="Shape"></g>
            <path id="Shape" d="M105,88 C102,91 98,92 93,92 C89,92 85,91 82,88 C79,84 77,81 77,76 C77,72 79,68 82,65 C85,62 89,60 93,60 C98,60 102,62 105,65 C108,68 110,72 110,76 C110,81 108,84 105,88 C105,88 108,84 105,88 L105,88 M86,84 C88,85 91,86 93,86 C96,86 99,85 100,84 C102,82 103,79 103,76 C103,73 102,71 100,69 C99,67 96,66 93,66 C91,66 88,67 86,69 C84,71 84,73 84,76 C84,79 84,82 86,84 C86,84 84,82 86,84 L86,84" fill="rgb(58,58,70)"></path>
            <path id="Shape decoration" d="" fill="rgb(58,58,70)"></path>
            <g fill="rgb(58,58,70)" id="Shape"></g>
            <path id="Shape" d="M119,75 L119,92 L113,92 L113,61 L119,61 L119,67 C120,65 122,63 124,62 C125,61 127,60 130,60 C133,60 136,62 138,64 C140,66 141,69 141,73 L141,92 L135,92 L135,75 C135,69 132,66 128,66 C125,66 123,67 122,69 C120,70 119,72 119,75 C119,75 119,72 119,75 L119,75" fill="rgb(58,58,70)"></path>
            <path id="Shape decoration" d="" fill="rgb(58,58,70)"></path>
            <g fill="rgb(58,58,70)" id="Shape"></g>
            <path id="Shape" d="M175,79 L150,79 C151,81 152,83 153,85 C155,86 158,87 160,87 C164,87 167,85 169,83 L173,87 C169,90 165,92 160,92 C155,92 151,91 148,88 C145,85 144,81 144,76 C144,71 145,67 149,65 C152,62 155,60 159,60 C164,60 167,62 170,64 C173,67 175,70 175,75 L175,79 L175,79 L175,79 M150,74 L168,74 C168,71 167,69 166,68 C164,67 162,66 160,66 C157,66 155,67 153,68 C151,69 150,71 150,74 C150,74 150,71 150,74 L150,74" fill="rgb(58,58,70)"></path>
            <path id="Shape decoration" d="" fill="rgb(58,58,70)"></path>
            <g fill="rgb(58,58,70)" id="Shape"></g>
            <path id="Shape" d="M182,104 C179,104 177,103 174,101 L177,96 C179,97 180,98 181,98 C183,98 184,97 185,96 C186,95 186,94 186,93 C186,92 182,81 174,61 L181,61 L190,84 L199,61 L206,61 L191,98 C190,100 189,101 187,102 C186,103 184,104 182,104 L182,104 L182,104" fill="rgb(58,58,70)"></path>
            <path id="Shape decoration" d="" fill="rgb(58,58,70)"></path>
        </g>
    </g>
</svg>