<?xml version="1.0" encoding="UTF-8" standalone="no"?>
<svg width="415px" height="268px" xmlns="http://www.w3.org/2000/svg" version="1.1">
    <title>type-cash</title>
    <description>Created with Sketch (http://www.bohemiancoding.com/sketch)</description>
    <defs>
        <linearGradient id="gradient-1" x1="50%" y1="0%" x2="50%" y2="100%">
            <stop offset="0%" style="stop-color:rgb(255,255,255); stop-opacity:100"></stop>
            <stop offset="100%" style="stop-color:rgb(0,0,0); stop-opacity:100"></stop>
        </linearGradient>
        <linearGradient id="gradient-2" x1="50%" y1="0%" x2="50%" y2="100%">
            <stop offset="0%" style="stop-color:rgb(255,255,255); stop-opacity:100"></stop>
            <stop offset="100%" style="stop-color:rgb(0,0,0); stop-opacity:100"></stop>
        </linearGradient>
        <linearGradient id="gradient-3" x1="50%" y1="0%" x2="50%" y2="100%">
            <stop offset="0%" style="stop-color:rgb(255,255,255); stop-opacity:100"></stop>
            <stop offset="100%" style="stop-color:rgb(0,0,0); stop-opacity:100"></stop>
        </linearGradient>
        <linearGradient id="gradient-4" x1="50%" y1="0%" x2="50%" y2="100%">
            <stop offset="0%" style="stop-color:rgb(255,255,255); stop-opacity:100"></stop>
            <stop offset="100%" style="stop-color:rgb(0,0,0); stop-opacity:100"></stop>
        </linearGradient>
        <linearGradient id="gradient-5" x1="50%" y1="0%" x2="50%" y2="100%">
            <stop offset="0%" style="stop-color:rgb(255,255,255); stop-opacity:100"></stop>
            <stop offset="100%" style="stop-color:rgb(0,0,0); stop-opacity:100"></stop>
        </linearGradient>
        <linearGradient id="gradient-6" x1="50%" y1="0%" x2="50%" y2="100%">
            <stop offset="0%" style="stop-color:rgb(255,255,255); stop-opacity:100"></stop>
            <stop offset="100%" style="stop-color:rgb(0,0,0); stop-opacity:100"></stop>
        </linearGradient>
    </defs>
    <g fill="rgb(215,215,215)" id="Page 1">
        <g fill="rgb(144,228,182)" id="Shape"></g>
        <path id="Shape" d="M78,265 C66,239 12,122 1,96 C13,84 35,60 81,49 C140,34 206,48 268,33 C301,25 319,12 336,1 L413,169 C399,179 378,197 338,207 C275,223 209,209 151,223 C113,232 96,250 78,265 C78,265 96,250 78,265 L78,265 M34,102 C45,127 74,191 88,221 C105,210 123,201 144,196 C206,181 273,195 331,180 C349,176 364,169 378,160 L324,40 C308,49 292,55 274,60 C208,76 143,61 87,75 C66,80 49,89 34,102 C34,102 49,89 34,102 L34,102 M257,120 C245,92 212,74 184,79 C155,84 141,110 153,137 C165,166 201,184 230,177 C256,171 268,146 257,120 C257,120 268,146 257,120 L257,120 M221,153 L224,159 L214,161 L212,155 C207,156 200,155 195,153 L193,142 C199,143 207,145 212,143 C217,141 216,136 210,135 C204,134 187,134 181,121 C179,116 180,108 190,104 L187,98 L196,96 L199,102 C203,102 208,102 213,102 C213,104 215,113 215,113 C211,113 205,112 200,113 C200,113 200,113 200,113 C194,115 195,119 200,120 C211,123 225,124 230,135 C234,144 229,150 221,153 C221,153 229,150 221,153 L221,153" fill="rgb(144,228,182)"></path>
        <path id="Shape decoration" d="" fill="rgb(144,228,182)"></path>
    </g>
</svg>