<?xml version="1.0" encoding="UTF-8" standalone="no"?>
<svg width="415px" height="259px" xmlns="http://www.w3.org/2000/svg" version="1.1">
    <title>type-emoney</title>
    <description>Created with Sketch (http://www.bohemiancoding.com/sketch)</description>
    <defs>
        <linearGradient id="gradient-1" x1="50%" y1="0%" x2="50%" y2="100%">
            <stop offset="0%" style="stop-color:rgb(255,255,255); stop-opacity:100"></stop>
            <stop offset="100%" style="stop-color:rgb(0,0,0); stop-opacity:100"></stop>
        </linearGradient>
        <linearGradient id="gradient-2" x1="50%" y1="0%" x2="50%" y2="100%">
            <stop offset="0%" style="stop-color:rgb(255,255,255); stop-opacity:100"></stop>
            <stop offset="100%" style="stop-color:rgb(0,0,0); stop-opacity:100"></stop>
        </linearGradient>
        <linearGradient id="gradient-3" x1="50%" y1="0%" x2="50%" y2="100%">
            <stop offset="0%" style="stop-color:rgb(255,255,255); stop-opacity:100"></stop>
            <stop offset="100%" style="stop-color:rgb(0,0,0); stop-opacity:100"></stop>
        </linearGradient>
        <linearGradient id="gradient-4" x1="50%" y1="0%" x2="50%" y2="100%">
            <stop offset="0%" style="stop-color:rgb(255,255,255); stop-opacity:100"></stop>
            <stop offset="100%" style="stop-color:rgb(0,0,0); stop-opacity:100"></stop>
        </linearGradient>
        <linearGradient id="gradient-5" x1="50%" y1="0%" x2="50%" y2="100%">
            <stop offset="0%" style="stop-color:rgb(255,255,255); stop-opacity:100"></stop>
            <stop offset="100%" style="stop-color:rgb(0,0,0); stop-opacity:100"></stop>
        </linearGradient>
        <linearGradient id="gradient-6" x1="50%" y1="0%" x2="50%" y2="100%">
            <stop offset="0%" style="stop-color:rgb(255,255,255); stop-opacity:100"></stop>
            <stop offset="100%" style="stop-color:rgb(0,0,0); stop-opacity:100"></stop>
        </linearGradient>
        <linearGradient id="gradient-7" x1="50%" y1="0%" x2="50%" y2="100%">
            <stop offset="0%" style="stop-color:rgb(255,255,255); stop-opacity:100"></stop>
            <stop offset="100%" style="stop-color:rgb(0,0,0); stop-opacity:100"></stop>
        </linearGradient>
        <linearGradient id="gradient-8" x1="50%" y1="0%" x2="50%" y2="100%">
            <stop offset="0%" style="stop-color:rgb(255,255,255); stop-opacity:100"></stop>
            <stop offset="100%" style="stop-color:rgb(0,0,0); stop-opacity:100"></stop>
        </linearGradient>
    </defs>
    <g fill="rgb(215,215,215)" id="Page 1">
        <g fill="rgb(255,254,254)" id="Shape"></g>
        <path id="Shape" d="M132,181 L61,181 L61,200 L132,200 L132,181 L132,181 L132,181 M193,143 L61,143 L61,162 L193,162 L193,143 L193,143 L193,143 M353,143 L293,143 L293,162 L353,162 L353,143 L353,143 L353,143 M383,2 L31,2 C14,2 1,15 1,32 L1,227 C1,243 14,257 31,257 L383,257 C399,257 413,243 413,227 L413,32 C413,15 399,2 383,2 L383,2 L383,2 M41,32 L373,32 C378,32 383,36 383,42 L383,63 L31,63 L31,42 C31,36 35,32 41,32 C41,32 35,32 41,32 L41,32 M373,227 L41,227 C35,227 31,222 31,217 L31,116 L383,116 L383,217 C383,222 378,227 373,227 L373,227 L373,227" fill="rgb(255,254,254)"></path>
        <path id="Shape decoration" d="" fill="rgb(255,254,254)"></path>
    </g>
</svg>