<?xml version="1.0" encoding="UTF-8" standalone="no"?>
<svg width="419px" height="218px" xmlns="http://www.w3.org/2000/svg" version="1.1">
    <title>type-bank</title>
    <description>Created with Sketch (http://www.bohemiancoding.com/sketch)</description>
    <defs>
        <linearGradient id="gradient-1" x1="50%" y1="0%" x2="50%" y2="100%">
            <stop offset="0%" style="stop-color:rgb(255,255,255); stop-opacity:100"></stop>
            <stop offset="100%" style="stop-color:rgb(0,0,0); stop-opacity:100"></stop>
        </linearGradient>
        <linearGradient id="gradient-2" x1="50%" y1="0%" x2="50%" y2="100%">
            <stop offset="0%" style="stop-color:rgb(255,255,255); stop-opacity:100"></stop>
            <stop offset="100%" style="stop-color:rgb(0,0,0); stop-opacity:100"></stop>
        </linearGradient>
        <linearGradient id="gradient-3" x1="50%" y1="0%" x2="50%" y2="100%">
            <stop offset="0%" style="stop-color:rgb(255,255,255); stop-opacity:100"></stop>
            <stop offset="100%" style="stop-color:rgb(0,0,0); stop-opacity:100"></stop>
        </linearGradient>
        <linearGradient id="gradient-4" x1="50%" y1="0%" x2="50%" y2="100%">
            <stop offset="0%" style="stop-color:rgb(255,255,255); stop-opacity:100"></stop>
            <stop offset="100%" style="stop-color:rgb(0,0,0); stop-opacity:100"></stop>
        </linearGradient>
        <linearGradient id="gradient-5" x1="50%" y1="0%" x2="50%" y2="100%">
            <stop offset="0%" style="stop-color:rgb(255,255,255); stop-opacity:100"></stop>
            <stop offset="100%" style="stop-color:rgb(0,0,0); stop-opacity:100"></stop>
        </linearGradient>
        <linearGradient id="gradient-6" x1="50%" y1="0%" x2="50%" y2="100%">
            <stop offset="0%" style="stop-color:rgb(255,255,255); stop-opacity:100"></stop>
            <stop offset="100%" style="stop-color:rgb(0,0,0); stop-opacity:100"></stop>
        </linearGradient>
    </defs>
    <g fill="rgb(215,215,215)" id="Page 1">
        <g fill="rgb(255,254,254)" id="Shape"></g>
        <path id="Shape" d="M385,31 L385,186 L33,186 L33,31 L385,31 M415,1 L3,1 L3,216 L415,216 L415,1 L415,1 L415,1 M209,45 C174,45 145,74 145,108 C145,143 174,172 209,172 C243,172 272,143 272,108 C272,74 243,45 209,45 L209,45 L209,45 M215,141 L215,149 L203,149 L203,142 C198,141 190,139 185,136 L189,123 C195,125 204,128 210,127 C216,126 218,121 211,118 C205,115 185,112 185,96 C185,89 190,79 203,77 L203,68 L215,68 L215,76 C220,76 225,77 231,79 C230,82 228,93 228,93 C224,91 217,89 211,89 C203,90 202,95 207,98 C218,103 234,107 234,122 C234,133 225,140 215,141 C215,141 225,140 215,141 L215,141" fill="rgb(255,254,254)"></path>
        <path id="Shape decoration" d="" fill="rgb(255,254,254)"></path>
    </g>
</svg>