<?xml version="1.0" encoding="UTF-8" standalone="no"?>
<svg width="420px" height="258px" xmlns="http://www.w3.org/2000/svg" version="1.1">
    <title>type-credit-card</title>
    <description>Created with Sketch (http://www.bohemiancoding.com/sketch)</description>
    <defs>
        <linearGradient id="gradient-1" x1="50%" y1="0%" x2="50%" y2="100%">
            <stop offset="0%" style="stop-color:rgb(255,255,255); stop-opacity:100"></stop>
            <stop offset="100%" style="stop-color:rgb(0,0,0); stop-opacity:100"></stop>
        </linearGradient>
        <linearGradient id="gradient-2" x1="50%" y1="0%" x2="50%" y2="100%">
            <stop offset="0%" style="stop-color:rgb(255,255,255); stop-opacity:100"></stop>
            <stop offset="100%" style="stop-color:rgb(0,0,0); stop-opacity:100"></stop>
        </linearGradient>
        <linearGradient id="gradient-3" x1="50%" y1="0%" x2="50%" y2="100%">
            <stop offset="0%" style="stop-color:rgb(255,255,255); stop-opacity:100"></stop>
            <stop offset="100%" style="stop-color:rgb(0,0,0); stop-opacity:100"></stop>
        </linearGradient>
        <linearGradient id="gradient-4" x1="50%" y1="0%" x2="50%" y2="100%">
            <stop offset="0%" style="stop-color:rgb(255,255,255); stop-opacity:100"></stop>
            <stop offset="100%" style="stop-color:rgb(0,0,0); stop-opacity:100"></stop>
        </linearGradient>
        <linearGradient id="gradient-5" x1="50%" y1="0%" x2="50%" y2="100%">
            <stop offset="0%" style="stop-color:rgb(255,255,255); stop-opacity:100"></stop>
            <stop offset="100%" style="stop-color:rgb(0,0,0); stop-opacity:100"></stop>
        </linearGradient>
        <linearGradient id="gradient-6" x1="50%" y1="0%" x2="50%" y2="100%">
            <stop offset="0%" style="stop-color:rgb(255,255,255); stop-opacity:100"></stop>
            <stop offset="100%" style="stop-color:rgb(0,0,0); stop-opacity:100"></stop>
        </linearGradient>
        <linearGradient id="gradient-7" x1="50%" y1="0%" x2="50%" y2="100%">
            <stop offset="0%" style="stop-color:rgb(255,255,255); stop-opacity:100"></stop>
            <stop offset="100%" style="stop-color:rgb(0,0,0); stop-opacity:100"></stop>
        </linearGradient>
        <linearGradient id="gradient-8" x1="50%" y1="0%" x2="50%" y2="100%">
            <stop offset="0%" style="stop-color:rgb(255,255,255); stop-opacity:100"></stop>
            <stop offset="100%" style="stop-color:rgb(0,0,0); stop-opacity:100"></stop>
        </linearGradient>
        <linearGradient id="gradient-9" x1="50%" y1="0%" x2="50%" y2="100%">
            <stop offset="0%" style="stop-color:rgb(255,255,255); stop-opacity:100"></stop>
            <stop offset="100%" style="stop-color:rgb(0,0,0); stop-opacity:100"></stop>
        </linearGradient>
        <linearGradient id="gradient-10" x1="50%" y1="0%" x2="50%" y2="100%">
            <stop offset="0%" style="stop-color:rgb(255,255,255); stop-opacity:100"></stop>
            <stop offset="100%" style="stop-color:rgb(0,0,0); stop-opacity:100"></stop>
        </linearGradient>
        <linearGradient id="gradient-11" x1="50%" y1="0%" x2="50%" y2="100%">
            <stop offset="0%" style="stop-color:rgb(255,255,255); stop-opacity:100"></stop>
            <stop offset="100%" style="stop-color:rgb(0,0,0); stop-opacity:100"></stop>
        </linearGradient>
        <linearGradient id="gradient-12" x1="50%" y1="0%" x2="50%" y2="100%">
            <stop offset="0%" style="stop-color:rgb(255,255,255); stop-opacity:100"></stop>
            <stop offset="100%" style="stop-color:rgb(0,0,0); stop-opacity:100"></stop>
        </linearGradient>
        <linearGradient id="gradient-13" x1="50%" y1="0%" x2="50%" y2="100%">
            <stop offset="0%" style="stop-color:rgb(255,255,255); stop-opacity:100"></stop>
            <stop offset="100%" style="stop-color:rgb(0,0,0); stop-opacity:100"></stop>
        </linearGradient>
        <linearGradient id="gradient-14" x1="50%" y1="0%" x2="50%" y2="100%">
            <stop offset="0%" style="stop-color:rgb(255,255,255); stop-opacity:100"></stop>
            <stop offset="100%" style="stop-color:rgb(0,0,0); stop-opacity:100"></stop>
        </linearGradient>
        <linearGradient id="gradient-15" x1="50%" y1="0%" x2="50%" y2="100%">
            <stop offset="0%" style="stop-color:rgb(255,255,255); stop-opacity:100"></stop>
            <stop offset="100%" style="stop-color:rgb(0,0,0); stop-opacity:100"></stop>
        </linearGradient>
        <linearGradient id="gradient-16" x1="50%" y1="0%" x2="50%" y2="100%">
            <stop offset="0%" style="stop-color:rgb(255,255,255); stop-opacity:100"></stop>
            <stop offset="100%" style="stop-color:rgb(0,0,0); stop-opacity:100"></stop>
        </linearGradient>
    </defs>
    <g fill="rgb(215,215,215)" id="Page 1">
        <g fill="rgb(144,228,182)" id="Shape"></g>
        <path id="Shape" d="M377,32 C382,32 387,36 387,42 L387,219 C387,225 382,229 377,229 L41,229 C35,229 31,225 31,219 L31,42 C31,36 35,32 41,32 L377,32 L377,32 L377,32 M387,2 L31,2 C14,2 1,15 1,32 L1,229 C1,246 14,260 31,260 L387,260 C404,260 417,246 417,229 L417,32 C417,15 404,2 387,2 L387,2 L387,2 M115,145 L123,145 C130,145 136,139 136,132 L136,127 L115,127 L115,145 L115,145 L115,145 M61,91 L61,97 L82,97 L82,78 L74,78 C67,78 61,83 61,91 C61,91 61,83 61,91 L61,91 M61,132 C61,139 67,145 74,145 L82,145 L82,127 L61,127 L61,132 L61,132 L61,132 M61,120 L82,120 L82,104 L61,104 L61,120 L61,120 L61,120 M123,78 L89,78 L89,145 L108,145 L108,97 L136,97 L136,91 C136,83 130,78 123,78 L123,78 L123,78 M115,104 L115,120 L136,120 L136,104 L115,104 L115,104 L115,104 M114,183 L61,183 L61,202 L114,202 L114,183 L114,183 L114,183 M196,183 L143,183 L143,202 L196,202 L196,183 L196,183 L196,183 M278,183 L225,183 L225,202 L278,202 L278,183 L278,183 L278,183 M359,183 L306,183 L306,202 L359,202 L359,183 L359,183 L359,183 M359,111 C359,131 343,147 323,147 C304,147 288,131 288,111 C288,92 304,76 323,76 C343,76 359,92 359,111 C359,111 359,92 359,111 L359,111 M279,111 C279,100 284,89 292,81 C286,78 280,76 273,76 C253,76 237,92 237,111 C237,131 253,147 273,147 C280,147 286,145 292,142 C284,134 279,123 279,111 C279,111 279,123 279,111 L279,111" fill="rgb(144,228,182)"></path>
        <path id="Shape decoration" d="" fill="rgb(144,228,182)"></path>
    </g>
</svg>